# xmcd
#
# Track frame offsets: 
#        150
#        27220
#        48047
#        66007
#        92710
#        117470
#        138830
#        161165
#        182845
#        204885
#
# Disc length: 3054 seconds
#
# Revision: 0
# Processed by: cddbd v1.5.2PL0 Copyright (c) Steve Scherf et al.
# Submitted via: ExactAudioCopy v1.0b3
#
DISCID=800bec0a
DTITLE=Son Tuyen - Thanh Pho Buon
DYEAR=1991
DGENRE=
TTITLE0=Thanh pho buon
TTITLE1=Mua nua dem
TTITLE2=Tinh vo canh bay
TTITLE3=Duyen tinh
TTITLE4=Ke chuyen trong dem
TTITLE5=Chuyen tinh La Lan
TTITLE6=Nha anh nha em
TTITLE7=Ta ao cuoi
TTITLE8=Xom dem
TTITLE9=Doi mat nguoi xua
EXTD=
EXTT0=
EXTT1=
EXTT2=
EXTT3=
EXTT4=
EXTT5=
EXTT6=
EXTT7=
EXTT8=
EXTT9=
PLAYORDER=
